<svg width="104" height="156" viewBox="0 0 104 156" fill="none" xmlns="http://www.w3.org/2000/svg">
<path d="M101.786 62.679C101.965 61.873 102.122 61.059 102.263 60.24C102.739 57.606 103.016 55.105 103.016 52.806C103.016 52.657 102.999 52.514 102.994 52.367C103 52.08 103.016 51.795 103.016 51.508C103.016 23.061 79.954 0 51.508 0C23.062 0 0 23.061 0 51.507C0 51.791 0.016 52.07 0.02 52.353C0.016 52.505 0 52.652 0 52.806C0 87.069 51.508 155.826 51.508 155.826C51.508 155.826 92.012 100.51 101.164 65.188C101.342 64.554 101.503 63.913 101.651 63.268C101.691 63.07 101.741 62.876 101.781 62.682L101.786 62.679Z" fill="#FDC434"/>
<path d="M79.322 41.792H23.693L37.6 32.403L51.507 23.013L65.414 32.403L79.322 41.792Z" fill="white"/>
<path d="M29.086 43.825V76.098H55.045V57.033H65.936V76.098H73.928V43.825H29.086V43.825ZM44.973 65.869H35.724V56.622H44.973V65.869Z" fill="white"/>
</svg>
